<?xml version="1.0" encoding="utf-8"?>
<!-- Generator: Adobe Illustrator 26.0.0, SVG Export Plug-In . SVG Version: 6.00 Build 0)  -->
<svg version="1.1" id="Layer_1" xmlns="http://www.w3.org/2000/svg" xmlns:xlink="http://www.w3.org/1999/xlink" x="0px" y="0px"
	 viewBox="0 0 176 68" width="100%" height="auto" style="enable-background:new 0 0 176 68;" xml:space="preserve" role="presentation">
<style type="text/css">
	.st0{fill:#244093;}
	.st1{fill:#FFFFFF;}
</style>
<g>
	<path class="st0" d="M5.1,59.8c2.2,0,3.7,1.6,3.7,3.7c0,2.2-1.6,3.8-4,3.8c-2.1,0-3.7-1.6-3.7-3.7C1.2,61.5,2.8,59.8,5.1,59.8z
		 M5.1,66.8c1.4,0,2.4-1,2.4-2.8c0-2.2-1.1-3.7-2.7-3.7c-1.4,0-2.4,1-2.4,2.9C2.5,65.3,3.6,66.8,5.1,66.8z"/>
	<path class="st0" d="M10.1,61c-0.1-0.3-0.3-0.5-0.6-0.6c-0.3-0.1-0.5-0.1-0.5-0.3c0-0.1,0.1-0.2,0.2-0.2c0.3,0,0.8,0.1,1.5,0.1
		c0.8,0,1.2-0.1,1.3-0.1c0.1,0,0.2,0.1,0.2,0.2c0,0.2-0.1,0.2-0.4,0.3c-0.3,0.1-0.4,0.3-0.4,0.6c0,0.2,0.1,0.4,0.2,0.6l1.5,3.6
		c0.1,0.1,0.1,0.2,0.2,0.2c0.1,0,0.1-0.1,0.1-0.2l1.5-3.3c0.1-0.3,0.2-0.6,0.2-0.8c0-0.4-0.2-0.6-0.6-0.7c-0.3-0.1-0.5-0.1-0.5-0.3
		c0-0.1,0.1-0.2,0.2-0.2c0.3,0,0.7,0.1,1.2,0.1c0.4,0,0.7-0.1,0.8-0.1c0.1,0,0.2,0.1,0.2,0.2c0,0.2-0.1,0.2-0.3,0.3
		c-0.1,0-0.2,0.2-0.4,0.6l-2.7,6.2c0,0.1-0.1,0.1-0.2,0.1c-0.1,0-0.1-0.1-0.2-0.2L10.1,61z"/>
	<path class="st0" d="M17.8,60.5c-0.4-0.3-0.9-0.1-0.9-0.4c0-0.1,0.1-0.2,0.3-0.2c0.1,0,0.7,0.1,1.8,0.1c1.5,0,2.4-0.1,2.9-0.1
		c0.3,0,0.4,0,0.4,0.4c0,0,0,0.1,0,0.2c0,0.5,0,0.8,0,0.9c0,0.2,0,0.2-0.2,0.2c-0.3,0-0.1-0.3-0.3-0.6c-0.2-0.4-0.7-0.6-1.7-0.6
		c-0.6,0-0.8,0.1-0.8,0.6v1.6c0,0.3,0.1,0.4,0.4,0.4H20c0.4,0,0.7-0.1,0.9-0.3c0.2-0.3,0.2-0.6,0.4-0.6c0.1,0,0.2,0.1,0.2,0.2
		c0,0.1,0,0.3,0,0.8c0,0.8,0.1,1.2,0.1,1.3c0,0.1-0.1,0.2-0.2,0.2c-0.3,0-0.2-0.2-0.3-0.6c-0.2-0.4-0.4-0.5-1-0.5h-0.4
		c-0.4,0-0.4,0.2-0.4,0.6v1.6c0,0.7,0.1,0.9,0.8,0.9c0.7,0,1.4-0.2,1.8-0.6c0.4-0.4,0.4-0.7,0.6-0.7c0.1,0,0.1,0.1,0.1,0.2
		c0,0.2-0.1,0.7-0.4,1.1c-0.3,0.4-0.7,0.6-1.3,0.6c-0.5,0-1.1-0.1-1.9-0.1c-0.9,0-1.4,0.1-1.6,0.1c-0.2,0-0.2-0.1-0.2-0.2
		c0-0.2,0.2-0.2,0.5-0.4c0.3-0.2,0.4-0.5,0.4-1v-4C18,61.1,18,60.8,17.8,60.5z"/>
	<path class="st0" d="M23.9,60.5c-0.3-0.3-0.8-0.1-0.8-0.4c0-0.1,0.1-0.2,0.3-0.2c0.1,0,0.6,0.1,1.3,0.1c0.6,0,1.2-0.1,1.9-0.1
		c1.6,0,2.4,0.7,2.4,1.9c0,0.8-0.4,1.3-1.3,1.6c0.2,0.1,0.3,0.2,0.4,0.4l1,1.9c0.3,0.5,0.4,0.7,0.7,0.7c0.1,0,0.2,0,0.3,0
		c0.1,0,0.1,0,0.1,0.1c0,0.2-0.5,0.5-1.1,0.5c-0.7,0-1.1-0.6-1.7-1.8c-0.4-0.8-0.6-1.2-0.8-1.4c-0.2-0.2-0.4-0.2-0.7-0.2
		s-0.4,0.1-0.4,0.4v1.5c0,0.5,0.1,0.9,0.4,1c0.2,0.1,0.6,0.1,0.6,0.3c0,0.2-0.1,0.2-0.2,0.2c-0.2,0-0.6-0.1-1.2-0.1
		c-0.7,0-1.2,0.1-1.4,0.1c-0.2,0-0.2-0.1-0.2-0.2c0-0.2,0.2-0.2,0.5-0.4c0.3-0.2,0.4-0.5,0.4-1v-4C24.1,61.1,24.1,60.8,23.9,60.5z
		 M26.2,63.3c1,0,1.5-0.3,1.5-1.2c0-1.1-0.6-1.7-1.7-1.7c-0.5,0-0.6,0.3-0.6,0.8v1.6C25.4,63.2,25.4,63.3,26.2,63.3z"/>
	<path class="st0" d="M38.2,61.4c1.4,0,2.3,1,2.3,2.6c0,1.9-1.3,3.2-3.2,3.2c-1.9,0-3.1-1.4-3.1-3.6c0-2,1.2-3.9,3.1-4.8
		c1-0.5,1.8-0.7,2.3-0.7c0.2,0,0.2,0.1,0.2,0.2c0,0.3-0.4,0.2-1.2,0.5c-1.5,0.7-2.3,1.8-2.6,3.4C36.8,61.7,37.5,61.4,38.2,61.4z
		 M37.6,66.7c1,0,1.5-0.7,1.5-1.9c0-1.6-0.7-2.6-1.8-2.6c-1,0-1.6,0.7-1.6,1.7C35.8,65.6,36.6,66.7,37.6,66.7z"/>
	<path class="st0" d="M42.8,58.8c0.1-0.4,0.1-0.5,0.5-0.5h2.2c1.1,0,1-0.5,1.2-0.5c0.1,0,0.1,0.1,0.1,0.1c0,0.1,0,0.2-0.1,0.3
		l-0.3,1c-0.1,0.4-0.3,0.4-0.7,0.4h-2.3c-0.3,0-0.4,0.2-0.5,0.5l-0.2,0.9c0,0.1,0,0.2,0,0.3c0,0.2,0,0.2,0.2,0.2
		c0.2,0,0.6-0.1,1.2-0.1c1.8,0,2.7,0.9,2.7,2.4c0,1.9-1.5,3.4-3.6,3.4c-1.2,0-2-0.4-2-0.7c0-0.1,0.1-0.1,0.2-0.1
		c0.2,0,0.7,0.3,1.5,0.3c1.5,0,2.5-1,2.5-2.2c0-1.2-0.7-1.8-2.1-1.8c-0.5,0-0.9,0.1-1,0.1c-0.2,0-0.3-0.1-0.3-0.2c0-0.1,0-0.2,0-0.3
		L42.8,58.8z"/>
	<path class="st0" d="M55,64.3c0-0.3-0.1-0.4-0.1-0.5l-1.5-2.7c-0.2-0.4-0.5-0.7-0.6-0.7c-0.2-0.1-0.5,0-0.5-0.3
		c0-0.1,0.1-0.2,0.3-0.2c0.1,0,0.5,0.1,1.3,0.1c0.7,0,1.1-0.1,1.2-0.1c0.2,0,0.2,0,0.2,0.2c0,0.3-0.6,0.1-0.6,0.6
		c0,0.1,0,0.2,0.1,0.4l1.1,2.2c0,0.1,0.1,0.1,0.1,0.1c0.1,0,0.1,0,0.1-0.1l1-1.8c0.1-0.2,0.2-0.4,0.2-0.6c0-0.3-0.2-0.4-0.4-0.5
		c-0.3-0.1-0.5,0-0.5-0.2c0-0.1,0.1-0.2,0.2-0.2c0.1,0,0.5,0.1,1.1,0.1c0.3,0,0.7-0.1,0.9-0.1c0.2,0,0.2,0,0.2,0.2
		c0,0.2-0.2,0.2-0.3,0.2c-0.2,0.1-0.4,0.3-0.6,0.7l-1.5,2.7c-0.1,0.2-0.1,0.3-0.1,0.4c0,0,0,0,0,0.1v0.9c0,0.1,0,0.2,0,0.3
		c0,0.6,0,0.9,0.3,1.1c0.3,0.2,0.9,0.1,0.9,0.4c0,0.1-0.1,0.2-0.3,0.2c-0.3,0-0.8-0.1-1.4-0.1c-0.7,0-1.3,0.1-1.6,0.1
		c-0.2,0-0.3-0.1-0.3-0.2c0-0.3,0.4-0.2,0.8-0.4c0.4-0.2,0.4-0.5,0.4-1.1c0-0.1,0-0.3,0-0.4V64.3z"/>
	<path class="st0" d="M60.5,60.5c-0.4-0.3-0.9-0.1-0.9-0.4c0-0.1,0.1-0.2,0.3-0.2c0.1,0,0.7,0.1,1.8,0.1c1.5,0,2.4-0.1,2.9-0.1
		c0.3,0,0.4,0,0.4,0.4c0,0,0,0.1,0,0.2c0,0.5,0,0.8,0,0.9c0,0.2,0,0.2-0.2,0.2c-0.3,0-0.1-0.3-0.3-0.6c-0.2-0.4-0.7-0.6-1.7-0.6
		c-0.6,0-0.8,0.1-0.8,0.6v1.6c0,0.3,0.1,0.4,0.4,0.4h0.3c0.4,0,0.7-0.1,0.9-0.3c0.2-0.3,0.2-0.6,0.4-0.6c0.1,0,0.2,0.1,0.2,0.2
		c0,0.1,0,0.3,0,0.8c0,0.8,0.1,1.2,0.1,1.3c0,0.1-0.1,0.2-0.2,0.2c-0.3,0-0.2-0.2-0.3-0.6c-0.2-0.4-0.4-0.5-1-0.5h-0.4
		c-0.4,0-0.4,0.2-0.4,0.6v1.6c0,0.7,0.1,0.9,0.8,0.9c0.7,0,1.4-0.2,1.8-0.6c0.4-0.4,0.4-0.7,0.6-0.7c0.1,0,0.1,0.1,0.1,0.2
		c0,0.2-0.1,0.7-0.4,1.1c-0.3,0.4-0.7,0.6-1.3,0.6c-0.5,0-1.1-0.1-1.9-0.1c-0.9,0-1.4,0.1-1.6,0.1c-0.2,0-0.2-0.1-0.2-0.2
		c0-0.2,0.2-0.2,0.5-0.4c0.3-0.2,0.4-0.5,0.4-1v-4C60.8,61.1,60.8,60.8,60.5,60.5z"/>
	<path class="st0" d="M69.5,59.9c0-0.1,0.1-0.1,0.2-0.1c0.1,0,0.1,0.1,0.2,0.2l2.6,6.1c0.1,0.3,0.3,0.5,0.6,0.7
		c0.3,0.1,0.4,0.1,0.4,0.3c0,0.2,0,0.2-0.2,0.2c-0.3,0-0.8-0.1-1.4-0.1c-0.8,0-1.2,0.1-1.3,0.1c-0.1,0-0.2-0.1-0.2-0.2
		c0-0.3,0.7-0.2,0.7-0.8c0-0.1,0-0.3-0.1-0.4L70.7,65c-0.2-0.4-0.3-0.4-0.7-0.4c0,0-0.1,0-0.1,0h-1.3c-0.5,0-0.6,0-0.8,0.4l-0.3,0.8
		c-0.1,0.1-0.1,0.2-0.1,0.3c0,0.3,0.2,0.5,0.7,0.6c0.2,0.1,0.4,0.1,0.4,0.2c0,0.1-0.1,0.2-0.2,0.2c-0.2,0-0.7-0.1-1.3-0.1
		c-0.5,0-0.8,0.1-0.9,0.1c-0.1,0-0.2-0.1-0.2-0.2c0-0.2,0.2-0.2,0.4-0.3c0.3-0.2,0.4-0.5,0.6-1L69.5,59.9z M69.9,64
		c0.2,0,0.3-0.1,0.3-0.1c0,0,0-0.1-0.1-0.3l-0.7-1.7c-0.1-0.1-0.1-0.2-0.2-0.2c-0.1,0-0.1,0.1-0.2,0.2l-0.8,1.8
		c-0.1,0.1-0.1,0.2-0.1,0.3c0,0.1,0.1,0.2,0.5,0.2H69.9z"/>
	<path class="st0" d="M74.5,60.5c-0.3-0.3-0.8-0.1-0.8-0.4c0-0.1,0.1-0.2,0.3-0.2c0.1,0,0.6,0.1,1.3,0.1c0.6,0,1.2-0.1,1.9-0.1
		c1.6,0,2.4,0.7,2.4,1.9c0,0.8-0.4,1.3-1.3,1.6c0.2,0.1,0.3,0.2,0.4,0.4l1,1.9c0.3,0.5,0.4,0.7,0.7,0.7c0.1,0,0.2,0,0.3,0
		c0.1,0,0.1,0,0.1,0.1c0,0.2-0.5,0.5-1.1,0.5c-0.7,0-1.1-0.6-1.7-1.8c-0.4-0.8-0.6-1.2-0.8-1.4c-0.2-0.2-0.4-0.2-0.7-0.2
		c-0.3,0-0.4,0.1-0.4,0.4v1.5c0,0.5,0.1,0.9,0.4,1c0.2,0.1,0.6,0.1,0.6,0.3c0,0.2-0.1,0.2-0.2,0.2c-0.2,0-0.6-0.1-1.2-0.1
		c-0.7,0-1.2,0.1-1.4,0.1c-0.2,0-0.2-0.1-0.2-0.2c0-0.2,0.2-0.2,0.5-0.4c0.3-0.2,0.4-0.5,0.4-1v-4C74.7,61.1,74.7,60.8,74.5,60.5z
		 M76.8,63.3c1,0,1.5-0.3,1.5-1.2c0-1.1-0.6-1.7-1.7-1.7c-0.5,0-0.6,0.3-0.6,0.8v1.6C76,63.2,76,63.3,76.8,63.3z"/>
	<path class="st0" d="M81.3,65c0-0.1,0-0.2,0-0.2c0-0.2,0-0.2,0.2-0.2c0.2,0,0.2,0.3,0.5,1c0.4,0.8,1.1,1.2,1.7,1.2
		c0.8,0,1.4-0.5,1.4-1.3c0-0.8-0.6-1-1.7-1.5c-1.2-0.5-2-0.9-2-2.2c0-1,0.8-2,2-2c0.8,0,1.2,0.3,1.5,0.3c0.2,0,0.3-0.1,0.4-0.1
		c0.1,0,0.2,0.1,0.2,0.2c0,0.1,0,0.2,0,0.4c0,0.5,0.1,1,0.1,1.3c0,0.2,0,0.2-0.2,0.2c-0.3,0-0.1-0.3-0.5-1c-0.4-0.6-1-0.9-1.6-0.9
		c-0.7,0-1.1,0.4-1.1,1c0,0.6,0.5,1,1.4,1.3c0.7,0.3,1.2,0.4,1.6,0.8c0.4,0.4,0.6,0.9,0.6,1.6c0,1.4-0.9,2.3-2.2,2.3
		c-0.7,0-1.2-0.3-1.6-0.4c-0.4-0.1-0.4,0-0.4-0.4L81.3,65z"/>
	<path class="st0" d="M94.8,59.8c2.2,0,3.7,1.6,3.7,3.7c0,2.2-1.6,3.8-4,3.8c-2.1,0-3.7-1.6-3.7-3.7C90.9,61.5,92.5,59.8,94.8,59.8z
		 M94.8,66.8c1.4,0,2.4-1,2.4-2.8c0-2.2-1.1-3.7-2.7-3.7c-1.4,0-2.4,1-2.4,2.9C92.2,65.3,93.2,66.8,94.8,66.8z"/>
	<path class="st0" d="M99.8,60.5c-0.4-0.3-0.9-0.1-0.9-0.4c0-0.1,0.1-0.2,0.3-0.2c0.1,0,0.7,0.1,2.1,0.1c1.5,0,2.4-0.1,2.6-0.1
		c0.3,0,0.3,0.1,0.3,0.4V61c0,0.2,0,0.3,0,0.3c0,0.2,0,0.2-0.2,0.2c-0.3,0-0.1-0.3-0.3-0.6c-0.2-0.4-0.7-0.6-1.7-0.6
		c-0.6,0-0.8,0.1-0.8,0.6v1.6c0,0.3,0.1,0.4,0.4,0.4h0.3c0.4,0,0.7-0.1,0.9-0.3c0.2-0.3,0.2-0.6,0.4-0.6c0.1,0,0.2,0.1,0.2,0.2
		c0,0,0,0.3,0,0.7c0,0.9,0.1,1.3,0.1,1.4c0,0.1-0.1,0.2-0.2,0.2c-0.3,0-0.1-0.2-0.3-0.6c-0.2-0.4-0.4-0.5-1-0.5h-0.4
		c-0.4,0-0.4,0.2-0.4,0.6v1.5c0,0.5,0.2,0.9,0.5,1c0.3,0.1,0.7,0.1,0.7,0.3c0,0.1-0.1,0.2-0.3,0.2c-0.3,0-0.8-0.1-1.4-0.1
		c-0.7,0-1.2,0.1-1.4,0.1c-0.2,0-0.2-0.1-0.2-0.2c0-0.2,0.2-0.2,0.5-0.4c0.3-0.2,0.4-0.5,0.4-1v-4C100.1,61.1,100.1,60.8,99.8,60.5z
		"/>
	<path class="st0" d="M109.6,60.5c-0.4-0.3-0.9-0.1-0.9-0.4c0-0.1,0.1-0.2,0.3-0.2c0.1,0,0.7,0.1,1.8,0.1c1.5,0,2.4-0.1,2.9-0.1
		c0.3,0,0.4,0,0.4,0.4c0,0,0,0.1,0,0.2c0,0.5,0,0.8,0,0.9c0,0.2,0,0.2-0.2,0.2c-0.3,0-0.1-0.3-0.3-0.6c-0.2-0.4-0.7-0.6-1.7-0.6
		c-0.6,0-0.8,0.1-0.8,0.6v1.6c0,0.3,0.1,0.4,0.4,0.4h0.3c0.4,0,0.7-0.1,0.9-0.3c0.2-0.3,0.2-0.6,0.4-0.6c0.1,0,0.2,0.1,0.2,0.2
		c0,0.1,0,0.3,0,0.8c0,0.8,0.1,1.2,0.1,1.3c0,0.1-0.1,0.2-0.2,0.2c-0.3,0-0.2-0.2-0.3-0.6c-0.2-0.4-0.4-0.5-1-0.5h-0.4
		c-0.4,0-0.4,0.2-0.4,0.6v1.6c0,0.7,0.1,0.9,0.8,0.9c0.7,0,1.4-0.2,1.8-0.6c0.4-0.4,0.4-0.7,0.6-0.7c0.1,0,0.1,0.1,0.1,0.2
		c0,0.2-0.1,0.7-0.4,1.1c-0.3,0.4-0.7,0.6-1.3,0.6c-0.5,0-1.1-0.1-1.9-0.1c-0.9,0-1.4,0.1-1.6,0.1c-0.2,0-0.2-0.1-0.2-0.2
		c0-0.2,0.2-0.2,0.5-0.4c0.3-0.2,0.4-0.5,0.4-1v-4C109.9,61.1,109.9,60.8,109.6,60.5z"/>
	<path class="st0" d="M117.8,63.9c0-0.1,0.1-0.1,0.1-0.2c0-0.1,0-0.1-0.1-0.2l-1.3-2c-0.4-0.6-0.8-1-0.9-1c-0.3-0.2-0.6-0.1-0.6-0.4
		c0-0.1,0.1-0.2,0.3-0.2c0.4,0,0.9,0.1,1.4,0.1c0.6,0,1-0.1,1.2-0.1c0.2,0,0.2,0.1,0.2,0.2c0,0.2-0.1,0.2-0.2,0.2
		c-0.2,0.1-0.3,0.2-0.3,0.4c0,0.1,0.1,0.2,0.2,0.4l1,1.4c0.1,0.1,0.1,0.1,0.2,0.1c0,0,0.1,0,0.2-0.1l1-1.2c0.2-0.2,0.3-0.4,0.3-0.6
		c0-0.2-0.1-0.3-0.3-0.4c-0.2-0.1-0.4,0-0.4-0.2c0-0.1,0.1-0.2,0.2-0.2c0.2,0,0.6,0.1,1.1,0.1c0.5,0,0.8-0.1,1-0.1
		c0.1,0,0.2,0.1,0.2,0.2c0,0.3-0.2,0.2-0.5,0.3c-0.3,0.1-0.7,0.5-1.2,1.1l-1.1,1.4c-0.1,0.1-0.1,0.1-0.1,0.2c0,0.1,0,0.1,0.1,0.2
		l1.6,2.3c0.4,0.6,0.7,0.9,0.9,1c0.2,0.2,0.4,0.1,0.4,0.3c0,0.1-0.1,0.2-0.3,0.2c-0.3,0-0.8-0.1-1.2-0.1c-0.6,0-1,0.1-1.2,0.1
		c-0.2,0-0.3-0.1-0.3-0.2c0-0.3,0.6-0.1,0.6-0.6c0-0.1-0.1-0.3-0.2-0.6l-1.1-1.5c-0.1-0.1-0.1-0.1-0.1-0.1c0,0-0.1,0-0.1,0.1l-1,1.3
		c-0.2,0.3-0.3,0.5-0.3,0.7c0,0.2,0.1,0.4,0.4,0.4c0.3,0.1,0.4,0,0.4,0.2c0,0.2-0.1,0.2-0.3,0.2c-0.2,0-0.5-0.1-1-0.1
		c-0.5,0-0.8,0.1-1.1,0.1c-0.2,0-0.3-0.1-0.3-0.2c0-0.2,0.2-0.2,0.5-0.3c0.4-0.2,0.7-0.6,1.1-1.1L117.8,63.9z"/>
	<path class="st0" d="M123.3,61c0.7-0.8,1.6-1.2,2.6-1.2c1.3,0,2.1,0.6,2.3,0.6c0.2,0,0.2-0.3,0.4-0.3c0.2,0,0.2,0.2,0.2,0.5
		c0,0.9,0.2,1.5,0.2,1.7c0,0.1-0.1,0.2-0.1,0.2c-0.2,0-0.2-0.3-0.6-0.9c-0.6-0.8-1.5-1.3-2.3-1.3c-1.2,0-2.2,1.1-2.2,2.9
		c0,0.8,0.2,1.5,0.6,2.1c0.5,0.8,1.2,1.3,2.1,1.3c0.7,0,1.4-0.3,2-0.8c0.3-0.3,0.4-0.6,0.6-0.6c0.1,0,0.1,0.1,0.1,0.2
		c0,0.2-0.2,0.5-0.7,1c-0.7,0.7-1.6,1-2.6,1c-2,0-3.4-1.5-3.4-3.5C122.3,62.7,122.7,61.7,123.3,61z"/>
	<path class="st0" d="M130.4,60.5c-0.4-0.3-0.9-0.1-0.9-0.4c0-0.1,0.1-0.2,0.3-0.2c0.1,0,0.7,0.1,1.8,0.1c1.5,0,2.4-0.1,2.9-0.1
		c0.3,0,0.4,0,0.4,0.4c0,0,0,0.1,0,0.2c0,0.5,0,0.8,0,0.9c0,0.2,0,0.2-0.2,0.2c-0.3,0-0.1-0.3-0.3-0.6c-0.2-0.4-0.7-0.6-1.7-0.6
		c-0.6,0-0.8,0.1-0.8,0.6v1.6c0,0.3,0.1,0.4,0.4,0.4h0.3c0.4,0,0.7-0.1,0.9-0.3c0.2-0.3,0.2-0.6,0.4-0.6c0.1,0,0.2,0.1,0.2,0.2
		c0,0.1,0,0.3,0,0.8c0,0.8,0.1,1.2,0.1,1.3c0,0.1-0.1,0.2-0.2,0.2c-0.3,0-0.2-0.2-0.3-0.6c-0.2-0.4-0.4-0.5-1-0.5h-0.4
		c-0.4,0-0.4,0.2-0.4,0.6v1.6c0,0.7,0.1,0.9,0.8,0.9c0.7,0,1.4-0.2,1.8-0.6c0.4-0.4,0.4-0.7,0.6-0.7c0.1,0,0.1,0.1,0.1,0.2
		c0,0.2-0.1,0.7-0.4,1.1c-0.3,0.4-0.7,0.6-1.3,0.6c-0.5,0-1.1-0.1-1.9-0.1c-0.9,0-1.4,0.1-1.6,0.1c-0.2,0-0.2-0.1-0.2-0.2
		c0-0.2,0.2-0.2,0.5-0.4c0.3-0.2,0.4-0.5,0.4-1v-4C130.6,61.1,130.6,60.8,130.4,60.5z"/>
	<path class="st0" d="M136.5,60.5c-0.4-0.3-0.9-0.1-0.9-0.4c0-0.1,0.1-0.2,0.3-0.2c0.2,0,0.6,0.1,1.3,0.1c0.8,0,1.3-0.1,1.5-0.1
		c0.1,0,0.2,0.1,0.2,0.2c0,0.2-0.3,0.2-0.6,0.4c-0.3,0.2-0.3,0.5-0.3,1v4.1c0,0.7,0,0.9,0.8,0.9c0.7,0,1.4-0.2,1.8-0.6
		c0.4-0.4,0.4-0.7,0.6-0.7c0.1,0,0.2,0.1,0.2,0.2c0,0.2-0.1,0.7-0.4,1.1c-0.3,0.4-0.7,0.6-1.4,0.6c-0.5,0-1.1-0.1-1.9-0.1
		c-0.9,0-1.4,0.1-1.6,0.1c-0.2,0-0.3-0.1-0.3-0.2c0-0.2,0.2-0.2,0.5-0.4c0.3-0.2,0.4-0.5,0.4-1v-4C136.8,61.1,136.7,60.8,136.5,60.5
		z"/>
	<path class="st0" d="M142.4,60.5c-0.4-0.3-0.9-0.1-0.9-0.4c0-0.1,0.1-0.2,0.3-0.2c0.2,0,0.6,0.1,1.3,0.1c0.8,0,1.3-0.1,1.5-0.1
		c0.1,0,0.2,0.1,0.2,0.2c0,0.2-0.3,0.2-0.6,0.4c-0.3,0.2-0.3,0.5-0.3,1v4.1c0,0.7,0,0.9,0.8,0.9c0.7,0,1.4-0.2,1.8-0.6
		c0.4-0.4,0.4-0.7,0.6-0.7c0.1,0,0.2,0.1,0.2,0.2c0,0.2-0.1,0.7-0.4,1.1c-0.3,0.4-0.7,0.6-1.4,0.6c-0.5,0-1.1-0.1-1.9-0.1
		c-0.9,0-1.4,0.1-1.6,0.1c-0.2,0-0.3-0.1-0.3-0.2c0-0.2,0.2-0.2,0.5-0.4c0.3-0.2,0.4-0.5,0.4-1v-4C142.7,61.1,142.7,60.8,142.4,60.5
		z"/>
	<path class="st0" d="M148.3,60.5c-0.4-0.3-0.9-0.1-0.9-0.4c0-0.1,0.1-0.2,0.3-0.2c0.1,0,0.7,0.1,1.8,0.1c1.5,0,2.4-0.1,2.9-0.1
		c0.3,0,0.4,0,0.4,0.4c0,0,0,0.1,0,0.2c0,0.5,0,0.8,0,0.9c0,0.2,0,0.2-0.2,0.2c-0.3,0-0.1-0.3-0.3-0.6c-0.2-0.4-0.7-0.6-1.7-0.6
		c-0.6,0-0.8,0.1-0.8,0.6v1.6c0,0.3,0.1,0.4,0.4,0.4h0.3c0.4,0,0.7-0.1,0.9-0.3c0.2-0.3,0.2-0.6,0.4-0.6c0.1,0,0.2,0.1,0.2,0.2
		c0,0.1,0,0.3,0,0.8c0,0.8,0.1,1.2,0.1,1.3c0,0.1-0.1,0.2-0.2,0.2c-0.3,0-0.2-0.2-0.3-0.6c-0.2-0.4-0.4-0.5-1-0.5h-0.4
		c-0.4,0-0.4,0.2-0.4,0.6v1.6c0,0.7,0.1,0.9,0.8,0.9c0.7,0,1.4-0.2,1.8-0.6c0.4-0.4,0.4-0.7,0.6-0.7c0.1,0,0.1,0.1,0.1,0.2
		c0,0.2-0.1,0.7-0.4,1.1c-0.3,0.4-0.7,0.6-1.3,0.6c-0.5,0-1.1-0.1-1.9-0.1c-0.9,0-1.4,0.1-1.6,0.1c-0.2,0-0.2-0.1-0.2-0.2
		c0-0.2,0.2-0.2,0.5-0.4c0.3-0.2,0.4-0.5,0.4-1v-4C148.6,61.1,148.6,60.8,148.3,60.5z"/>
	<path class="st0" d="M154.7,61.8c0-0.6-0.1-1-0.3-1.3c-0.4-0.4-0.8-0.1-0.8-0.4c0-0.2,0.1-0.2,0.2-0.2c0.2,0,0.4,0.1,0.6,0.1
		c0.3,0,0.6-0.1,0.9-0.1c0.3,0,0.4,0.1,0.6,0.4l3.5,4.2c0.2,0.2,0.3,0.3,0.4,0.3c0.1,0,0.1-0.2,0.1-0.5v-2.6c0-0.6-0.1-1.1-0.4-1.3
		c-0.5-0.3-0.9-0.1-0.9-0.4c0-0.1,0.1-0.2,0.2-0.2c0.2,0,0.6,0.1,1,0.1c0.6,0,1-0.1,1.3-0.1c0.1,0,0.2,0,0.2,0.2
		c0,0.2-0.3,0.2-0.5,0.4c-0.3,0.2-0.3,0.6-0.3,1.2l-0.1,5.2c0,0.3,0,0.4-0.1,0.4c-0.2,0-0.3-0.2-0.6-0.5l-4.2-5
		c-0.1-0.1-0.2-0.2-0.2-0.2c-0.1,0-0.1,0.1-0.1,0.4v2.4c0,1.1,0,1.7,0.3,2.1c0.3,0.3,0.9,0.1,0.9,0.4c0,0.2-0.1,0.2-0.3,0.2
		c-0.2,0-0.5-0.1-1.1-0.1c-0.6,0-1,0.1-1.2,0.1c-0.1,0-0.2-0.1-0.2-0.2c0-0.2,0.4-0.1,0.7-0.4c0.2-0.2,0.3-0.9,0.3-2.1V61.8z"/>
	<path class="st0" d="M163,61c0.7-0.8,1.6-1.2,2.6-1.2c1.3,0,2.1,0.6,2.3,0.6c0.2,0,0.2-0.3,0.4-0.3c0.2,0,0.2,0.2,0.2,0.5
		c0,0.9,0.2,1.5,0.2,1.7c0,0.1-0.1,0.2-0.1,0.2c-0.2,0-0.2-0.3-0.6-0.9c-0.6-0.8-1.5-1.3-2.3-1.3c-1.2,0-2.2,1.1-2.2,2.9
		c0,0.8,0.2,1.5,0.6,2.1c0.5,0.8,1.2,1.3,2.1,1.3c0.7,0,1.4-0.3,2-0.8c0.3-0.3,0.4-0.6,0.6-0.6c0.1,0,0.1,0.1,0.1,0.2
		c0,0.2-0.2,0.5-0.7,1c-0.7,0.7-1.6,1-2.6,1c-2,0-3.4-1.5-3.4-3.5C162,62.7,162.4,61.7,163,61z"/>
	<path class="st0" d="M170.1,60.5c-0.4-0.3-0.9-0.1-0.9-0.4c0-0.1,0.1-0.2,0.3-0.2c0.1,0,0.7,0.1,1.8,0.1c1.5,0,2.4-0.1,2.9-0.1
		c0.3,0,0.4,0,0.4,0.4c0,0,0,0.1,0,0.2c0,0.5,0,0.8,0,0.9c0,0.2,0,0.2-0.2,0.2c-0.3,0-0.1-0.3-0.3-0.6c-0.2-0.4-0.7-0.6-1.7-0.6
		c-0.6,0-0.8,0.1-0.8,0.6v1.6c0,0.3,0.1,0.4,0.4,0.4h0.3c0.4,0,0.7-0.1,0.9-0.3c0.2-0.3,0.2-0.6,0.4-0.6c0.1,0,0.2,0.1,0.2,0.2
		c0,0.1,0,0.3,0,0.8c0,0.8,0.1,1.2,0.1,1.3c0,0.1-0.1,0.2-0.2,0.2c-0.3,0-0.2-0.2-0.3-0.6c-0.2-0.4-0.4-0.5-1-0.5H172
		c-0.4,0-0.4,0.2-0.4,0.6v1.6c0,0.7,0.1,0.9,0.8,0.9c0.7,0,1.4-0.2,1.8-0.6c0.4-0.4,0.4-0.7,0.6-0.7c0.1,0,0.1,0.1,0.1,0.2
		c0,0.2-0.1,0.7-0.4,1.1c-0.3,0.4-0.7,0.6-1.3,0.6c-0.5,0-1.1-0.1-1.9-0.1c-0.9,0-1.4,0.1-1.6,0.1c-0.2,0-0.2-0.1-0.2-0.2
		c0-0.2,0.2-0.2,0.5-0.4c0.3-0.2,0.4-0.5,0.4-1v-4C170.3,61.1,170.3,60.8,170.1,60.5z"/>
</g>
<g>
	<rect x="0.6" y="0.5" class="st0" width="174.4" height="53.6"/>
	<rect x="1.3" y="1.2" class="st1" width="173" height="52.2"/>
	<rect x="3" y="2.9" class="st0" width="169.6" height="48.8"/>
</g>
<g>
	<path class="st1" d="M54.7,24.4c0.5,0,1,0,1.4,0c0.4,0,0.8,0,1.2,0c0.1,0,0.2,0,0.2,0c0.1,0,0.1,0,0.2,0c0.2,0,0.7,0,0.7-0.5
		c0-0.3-0.4-0.4-0.8-0.5C57,23.2,56,23,56,21.5v-3.2l0-0.3c0-0.5,0-0.8,0.1-0.9c0.1-0.1,0.3-0.1,0.6-0.1h1.6c1.3,0,1.6,0.8,1.8,1.5
		c0.1,0.4,0.2,0.8,0.6,0.8c0.2,0,0.3-0.1,0.4-0.2c0.2-0.2,0.2-0.7,0.2-1c0,0,0-0.1,0-0.1L61.1,14c0-0.5-0.2-0.7-0.5-0.7l-0.1,0
		c-0.3,0-0.4,0.3-0.5,0.6c-0.3,0.6-0.7,1.4-1.9,1.4h-1.4c-0.8,0-0.8,0-0.8-0.9v-3.1c0-1.4,0-1.4,2.6-1.4c2.7,0,2.8,1,3,1.8
		c0.1,0.4,0.1,0.8,0.6,0.8c0.2,0,0.3-0.1,0.4-0.2c0.2-0.2,0.2-0.7,0.2-0.9l-0.1-2.2c0-0.3-0.2-0.6-0.6-0.6c-1,0-1.9,0-2.8,0.1
		c-0.8,0-1.5,0-2.2,0c-2.2,0-3.7,0-4.6-0.1c-0.5,0-0.9,0-1.2,0c-0.4,0-0.7,0.2-0.7,0.5c0,0.5,0.5,0.6,1,0.7c0.7,0.2,1.5,0.4,1.5,1.4
		v10.2c0,1.5-0.5,1.7-1,1.8c-0.3,0.1-0.7,0.2-0.7,0.7c0,0.2,0.2,0.4,0.6,0.4c0.7,0,1.3,0,1.8-0.1C54.1,24.4,54.4,24.4,54.7,24.4z"/>
	<path class="st1" d="M64.1,9.7c0.7,0.2,1.5,0.4,1.5,1.5v10.5c0,1.2-0.5,1.4-1,1.6C64.4,23.5,64,23.6,64,24c0,0.2,0.1,0.4,0.4,0.4
		c0.3,0,0.6,0,0.9,0c0.5,0,1,0,1.5,0c1,0,1.7,0,2.3,0.1c0.4,0,0.7,0,1.1,0c0.3,0,0.9,0,0.9-0.5c0-0.4-0.4-0.4-0.8-0.5
		c-0.7-0.1-1.7-0.2-1.7-1.9V11.1c0-1.2,0.5-1.3,1-1.5c0.3-0.1,0.6-0.2,0.6-0.6c0-0.5-0.4-0.5-0.9-0.5c-0.7,0-1.3,0-1.7,0.1
		c-0.4,0-0.7,0-1.1,0c-0.4,0-0.8,0-1.2,0c-0.4,0-0.9-0.1-1.3-0.1l-0.1,0c0,0-0.1,0-0.1,0c-0.6,0-0.7,0.3-0.7,0.5
		C63.2,9.5,63.6,9.6,64.1,9.7z"/>
	<path class="st1" d="M72.2,9.9c0.7,0.2,1.5,0.4,1.5,1.4v10.2c0,1.5-0.5,1.7-1,1.8C72.4,23.4,72,23.5,72,24c0,0.2,0.2,0.4,0.6,0.4
		c0.7,0,1.3,0,1.8-0.1c0.4,0,0.7,0,1,0c0.4,0,0.8,0,1.4,0c0.9,0,2.2,0.1,4.4,0.1c1.9,0,3.3-1.9,3.3-3.7c0-0.6-0.3-0.6-0.4-0.6
		c-0.3,0-0.5,0.3-0.7,0.6c-0.5,0.8-1.4,2.2-5.2,2.2c-0.5,0-0.9-0.1-1.1-0.3c-0.3-0.3-0.3-0.8-0.3-1.5l0-0.2l0-3.1c0-0.5,0-0.9,0.1-1
		c0.1-0.1,0.3-0.1,0.6-0.1h1.6c1.3,0,1.6,0.8,1.8,1.5c0.1,0.4,0.2,0.8,0.6,0.8c0.2,0,0.3-0.1,0.4-0.2c0.2-0.3,0.2-0.7,0.2-1l-0.2-4
		c0-0.5-0.2-0.7-0.5-0.7l-0.1,0c-0.2,0-0.4,0.3-0.5,0.6c-0.3,0.6-0.7,1.4-1.9,1.4h-1.4c-0.8,0-0.8,0-0.8-0.9v-3.1
		c0-1.4,0-1.4,2.6-1.4c2.7,0,2.8,1,2.9,1.8c0.1,0.4,0.1,0.8,0.6,0.8c0.2,0,0.3-0.1,0.4-0.2c0.2-0.3,0.2-0.7,0.1-1l-0.1-2.2
		c0-0.3-0.2-0.6-0.6-0.6c-1,0-1.9,0-2.8,0.1c-0.8,0-1.5,0-2.2,0c-2.2,0-3.7,0-4.6-0.1c-0.5,0-0.9,0-1.2,0c-0.4,0-0.7,0.3-0.7,0.5
		C71.2,9.6,71.7,9.8,72.2,9.9z"/>
	<path class="st1" d="M85.6,9.8c0.7,0.2,1.5,0.4,1.5,1.4v10.4c0,1.5-0.5,1.7-1,1.8c-0.3,0.1-0.7,0.2-0.7,0.7c0,0.2,0.2,0.4,0.6,0.4
		c0.7,0,1.3,0,1.8-0.1c0.4,0,0.7,0,1,0c0.4,0,0.8,0,1.4,0c1,0,2.3,0.1,4.4,0.1c1.9,0,3.2-1.9,3.2-3.7c0-0.6-0.3-0.6-0.4-0.6
		c-0.3,0-0.5,0.3-0.7,0.6c-0.5,0.8-1.4,2.2-5.2,2.2c-0.5,0-0.9-0.1-1.1-0.3c-0.3-0.3-0.3-0.8-0.3-1.5l0-10.5c0-0.9,0.4-0.9,0.9-1.1
		c0.3-0.1,0.7-0.2,0.7-0.6c0-0.5-0.3-0.5-0.7-0.5c-0.1,0-0.2,0-0.4,0c-0.3,0-0.8,0.1-2.1,0.1c-0.4,0-0.9,0-1.4,0c-0.5,0-1.1,0-1.5,0
		c-0.6,0-0.9,0.3-0.9,0.5C84.7,9.6,85.1,9.7,85.6,9.8z"/>
	<path class="st1" d="M97.7,9.8c0.7,0.2,1.5,0.4,1.5,1.7V22c0,1.1-0.5,1.2-1,1.3c-0.3,0.1-0.7,0.2-0.7,0.6c0,0.5,0.5,0.5,0.7,0.5
		c0.1,0,0.1,0,0.2,0c0.1,0,0.1,0,0.2,0c0.4,0,0.7,0,1,0c0.3,0,0.7,0,1,0c0.3,0,0.6,0,1.1,0c0.8,0,1.9,0.1,3.5,0.1
		c2.6,0,8.2-2.1,8.2-8.5c0-4.9-3.2-7.4-9.5-7.4c-0.6,0-1.1,0-1.7,0c-0.6,0-1.1,0-1.7,0c-1.5,0-2.2,0-2.6-0.1c-0.2,0-0.3,0-0.5,0
		c-0.2,0-0.6,0.2-0.6,0.5C96.8,9.6,97.2,9.7,97.7,9.8z M103.8,9.8c6.3,0,6.4,6.6,6.4,6.9c0,4.1-2.1,6.6-5.7,6.6
		c-1.5,0-2.3-0.5-2.3-1.4V11.7C102.2,10.2,102.2,9.8,103.8,9.8z"/>
	<path class="st1" d="M121.8,24.6c2,0,4.3-0.7,7-2.2c0.3-0.2,0.3-0.3,0.3-0.7c0-0.1,0-0.3,0-0.5c0-0.3,0-0.8,0-1.3
		c0-1.7,0.5-1.8,0.9-1.9c0.3-0.1,0.6-0.2,0.6-0.6c0-0.3-0.2-0.5-0.4-0.5c-0.4,0-0.8,0-1.2,0c-0.9,0.1-1.8,0-2.7,0c-0.5,0-1,0-1.5,0
		c-0.1,0-0.1,0-0.2,0c-0.1,0-0.2,0-0.3,0c-0.5,0-0.8,0.2-0.8,0.6c0,0.4,0.4,0.5,0.8,0.5c0.8,0.1,1.8,0.1,1.8,2.3
		c0,1.2,0,2.9-3.8,2.9c-3.6,0-4.9-4.2-4.9-6.8c0-6.2,3.7-6.7,4.8-6.7c4.3,0,5.3,2.7,5.8,4c0.2,0.5,0.3,0.7,0.5,0.7
		c0.3,0,0.7-0.1,0.7-0.6v-3.7c0-0.4,0-1-0.5-1c-0.2,0-0.4,0.2-0.5,0.3c-0.1,0.2-0.2,0.3-0.4,0.3c-0.1,0-0.5-0.1-0.8-0.3
		c-0.9-0.4-2.5-1.1-4.6-1.1c-5.8,0-7.9,5.2-7.9,8.7C114.3,19.7,115.8,24.6,121.8,24.6z"/>
	<path class="st1" d="M129.4,23.5c-0.3,0.1-0.6,0.3-0.6,0.6c0,0.2,0.1,0.3,0.2,0.4c0.1,0.1,0.3,0.1,0.5,0.1l0.1,0c0.3,0,0.6,0,1,0
		c0.6,0,1.3,0,2,0c0.3,0,0.7,0,1,0c0.1,0,0.2,0,0.3,0c0.1,0,0.2,0,0.3,0c0.5,0,0.7-0.2,0.7-0.5c0-0.4-0.4-0.5-0.9-0.6
		c-0.8-0.2-1.5-0.4-1.5-1.2c0-0.4,0.2-0.9,0.3-1.3c0-0.1,0.1-0.2,0.1-0.3c0.5-1.4,0.9-1.4,1.2-1.4h4.3c0.4,0,0.5,0.1,1.2,1.8
		c0.2,0.6,0.4,0.9,0.4,1.4c0,0.7-0.4,0.9-0.9,1.1c-0.3,0.1-0.7,0.3-0.7,0.7c0,0.4,0.4,0.4,0.6,0.4l0.3,0c0.3,0,0.6,0,1,0
		c0.4,0,0.9,0,1.4,0c0.8,0,1.4,0,1.8,0.1c0.3,0,0.6,0,1,0l0.3,0c0.2,0,0.4,0,0.5-0.1c0.2,0.1,0.4,0.1,0.6,0.1h0.1c0.4,0,0.7,0,1.1,0
		c0.5,0,1.1-0.1,1.9-0.1c0.8,0,1.4,0,1.9,0.1c0.4,0,0.8,0,1.1,0l0.4,0c0.4,0,0.9,0,0.9-0.6c0-0.3-0.4-0.4-0.8-0.5
		c-0.8-0.2-2-0.5-2-2.1v-9.9c0-1,0.1-1,0.9-1l1.9,0c1.5-0.1,1.7,0.8,2,1.5c0.1,0.4,0.3,0.9,0.7,0.9c0.2,0,0.3-0.1,0.4-0.2
		c0.2-0.3,0.1-0.7,0.1-1c0,0,0-0.1,0-0.1l-0.2-2.1c0-0.2-0.1-0.6-0.5-0.6c-0.9,0-1.7,0-2.6,0c-1.1,0-2.3,0.1-4.1,0.1
		c-1.8,0-3,0-4.1-0.1c-0.9,0-1.7,0-2.6,0c-0.5,0-0.5,0.4-0.5,0.6l-0.3,2.9l0,0.1c0,0.2-0.1,0.5,0.1,0.7c0.1,0.1,0.2,0.2,0.4,0.2
		c0.5,0,0.7-0.5,0.8-1.1c0.3-0.8,0.6-1.8,2-1.8h1.8c0.8,0,1,0,1,1v10.2c0,1.5-0.8,1.7-1.6,1.8c-0.3,0.1-0.6,0.1-0.8,0.3
		c-0.1-0.1-0.3-0.1-0.4-0.1c-0.4-0.1-0.9-0.1-1.3-1l-5.9-13.4c-0.3-0.6-0.3-0.8-0.7-0.8c-0.4,0-0.5,0.4-0.6,0.7c0,0.1,0,0.1-0.1,0.2
		l-5.9,13.3C130.2,23,129.8,23.3,129.4,23.5z M134.3,17.5c0-0.2,0.1-0.4,0.2-0.6c0,0,0-0.1,0.1-0.1l1.7-3.9c0-0.1,0.1-0.1,0.1-0.1
		c0,0,0,0,0,0.1l1.8,3.9l0.1,0.1c0.1,0.2,0.2,0.4,0.2,0.6c0,0-0.3,0-0.4,0l-3.1,0l-0.1,0C134.6,17.5,134.4,17.5,134.3,17.5z"/>
	<path class="st1" d="M157.6,9.9c0.7,0.2,1.5,0.4,1.5,1.4v10.2c0,1.5-0.5,1.7-1,1.8c-0.3,0.1-0.7,0.2-0.7,0.7c0,0.2,0.2,0.4,0.6,0.4
		c0.7,0,1.3,0,1.8-0.1c0.4,0,0.7,0,1,0c0.4,0,0.8,0,1.4,0c0.9,0,2.2,0.1,4.4,0.1c1.9,0,3.3-1.9,3.3-3.7c0-0.6-0.3-0.6-0.4-0.6
		c-0.3,0-0.5,0.3-0.7,0.6c-0.5,0.8-1.4,2.2-5.2,2.2c-0.5,0-0.9-0.1-1.1-0.3c-0.3-0.3-0.3-0.8-0.3-1.5l0-0.2l0-3.1
		c0-0.5,0-0.8,0.1-0.9c0.1-0.1,0.3-0.1,0.6-0.1h1.6c1.3,0,1.6,0.8,1.8,1.5c0.1,0.4,0.2,0.8,0.6,0.8c0.2,0,0.3-0.1,0.4-0.2
		c0.2-0.3,0.2-0.7,0.2-1l-0.2-4c0-0.5-0.2-0.7-0.5-0.7l-0.1,0c-0.2,0-0.4,0.3-0.5,0.6c-0.3,0.6-0.7,1.4-1.9,1.4h-1.4
		c-0.8,0-0.8,0-0.8-0.9v-3.1c0-1.4,0-1.4,2.6-1.4c2.7,0,2.8,1,2.9,1.8c0.1,0.4,0.1,0.8,0.6,0.8c0.2,0,0.3-0.1,0.4-0.2
		c0.2-0.2,0.2-0.7,0.2-0.9l-0.1-2.2c0-0.3-0.2-0.6-0.6-0.6c-1,0-1.9,0-2.8,0.1c-0.8,0-1.5,0-2.2,0c-2.2,0-3.7,0-4.6-0.1
		c-0.5,0-0.9,0-1.2,0c-0.4,0-0.7,0.3-0.7,0.5C156.6,9.6,157.1,9.8,157.6,9.9z"/>
</g>
<path class="st1" d="M78.4,45.3c-0.4-0.1-0.8-0.3-0.8-1.2v-5.9c0-0.6,0.2-0.7,0.5-0.8c0.2,0,0.4-0.1,0.4-0.4c0-0.3-0.3-0.3-0.4-0.3
	c-0.3,0-0.5,0-0.8,0c-0.3,0-0.6,0-0.9,0c-0.4,0-0.7,0-1,0c-0.2,0-0.4,0-0.7,0l-0.1,0c-0.1,0-0.4,0-0.4,0.4c0,0.3,0.3,0.3,0.5,0.4
	c0.4,0.1,0.9,0.2,0.9,1v1.8c0,0.4-0.2,0.4-0.3,0.4h-3.8c-0.1,0-0.2,0-0.2-0.3v-2c0-0.6,0.3-0.7,0.6-0.8c0.2-0.1,0.4-0.1,0.4-0.4
	c0-0.2-0.1-0.4-0.5-0.4c-0.2,0-0.3,0-0.5,0c-0.3,0-0.7,0-1.1,0c-0.4,0-0.7,0-0.9,0c-0.2,0-0.4,0-0.5,0c-0.3,0-0.8,0-0.8,0.4
	c0,0.3,0.3,0.4,0.6,0.4c0.4,0.1,0.9,0.1,0.9,0.9v5.7c0,0.9-0.3,1-0.7,1.2c-0.2,0.1-0.4,0.2-0.4,0.5c0,0.2,0.1,0.4,0.5,0.4
	c0.3,0,0.6,0,0.9,0c0.3,0,0.5,0,0.8,0c0.5,0,0.9,0,1.2,0c0.2,0,0.4,0,0.7,0c0.3,0,0.4,0,0.5-0.1c0.1-0.1,0.1-0.2,0.1-0.2
	c0-0.3-0.3-0.4-0.6-0.4c-0.5-0.1-1-0.3-1-1.1v-2c0-0.5,0-0.5,0.5-0.5h3.4c0.2,0,0.3,0,0.3,0c0,0,0,0.2,0,0.4l0,2.4
	c0,0.7-0.3,0.8-0.5,0.9c-0.2,0.1-0.4,0.2-0.4,0.4c0,0.1,0.1,0.3,0.4,0.3c0.4,0,0.7,0,1,0c0.2,0,0.5,0,0.7,0c0.3,0,0.6,0,0.9,0
	c0.3,0,0.6,0,0.8,0l0.1,0c0.1,0,0.4,0,0.4-0.3C78.9,45.5,78.6,45.4,78.4,45.3z"/>
<path class="st1" d="M93.2,36.5L93.2,36.5c-3.1,0-5,2-5,5.1c0,2.7,1.8,4.5,4.5,4.5c4.7,0,5-3.9,5-5.1C97.7,38.4,95.8,36.5,93.2,36.5
	z M95.8,41.6c0,2.4-0.9,3.7-2.8,3.7l0,0c-2.3,0-2.9-2.8-2.9-4.3c0-1.6,0.5-3.5,2.6-3.5l0,0C94.2,37.4,95.8,38.7,95.8,41.6z"/>
<path class="st1" d="M118.3,45.3c-0.3-0.1-0.8-0.2-0.8-1.2l-0.2-5.7c0-0.8,0.4-0.9,0.7-1c0.2-0.1,0.5-0.1,0.5-0.4
	c0-0.3-0.3-0.3-0.5-0.3c-0.2,0-0.4,0-0.5,0c-0.2,0-0.4,0-0.6,0c-0.1,0-0.3,0-0.5,0c-0.4,0-0.5,0.3-0.5,0.4l-3,6.2c0,0,0,0.1,0,0.1
	c0,0,0,0,0,0l-2.8-6.2c-0.2-0.4-0.4-0.5-0.6-0.5c0,0,0,0,0,0c-0.2,0-0.5,0-0.7,0c-0.2,0-0.4,0-0.5,0c-0.2,0-0.4,0-0.5,0
	c-0.1,0-0.2,0-0.2,0c-0.2,0-0.3,0.2-0.3,0.4c0,0.3,0.3,0.4,0.5,0.5c0.4,0.1,0.9,0.3,0.8,1.6l-0.2,5.1c0,0.7-0.4,0.9-0.7,1
	c-0.2,0.1-0.4,0.2-0.4,0.5c0,0.2,0.1,0.3,0.4,0.3c0.1,0,0.2,0,0.3,0c0.2,0,0.6,0,1,0c0.3,0,0.5,0,0.7,0c0.2,0,0.4,0,0.6,0
	c0.2,0,0.3,0,0.4-0.1c0.1-0.1,0.1-0.2,0.1-0.2c0-0.3-0.3-0.4-0.5-0.4c-0.4-0.1-0.9-0.2-0.9-1.5l0.1-3.4l2.4,5.3l0,0.1
	c0.1,0.1,0.2,0.4,0.4,0.4c0.3,0,0.4-0.2,0.5-0.4l2.5-5.1c0.1-0.1,0.1-0.3,0.2-0.4c0,0.1,0,0.1,0,0.2l0.2,3.9c0,0.8-0.3,0.9-0.5,1
	c-0.2,0.1-0.4,0.1-0.4,0.4c0,0.2,0.1,0.3,0.2,0.3c0.1,0,0.2,0,0.3,0l0.2,0c0.1,0,0.2,0,0.4,0c0.2,0,0.5,0,1.1,0c0.2,0,0.4,0,0.5,0
	c0.2,0,0.4,0,0.6,0c0.5,0,0.8,0,0.8-0.4C118.7,45.4,118.5,45.3,118.3,45.3z"/>
<path class="st1" d="M135.3,43.4c-0.2,0-0.3,0.2-0.5,0.4c-0.3,0.5-0.8,1.3-3,1.3c-0.3,0-0.5,0-0.6-0.1c-0.1-0.1-0.1-0.4-0.1-0.8
	l0-1.9c0-0.3,0-0.5,0.1-0.5c0.1-0.1,0.3-0.1,0.3-0.1h0.9c0.7,0,0.9,0.4,1,0.8c0.1,0.2,0.1,0.5,0.4,0.5c0.1,0,0.2-0.1,0.3-0.1
	c0.2-0.2,0.1-0.4,0.1-0.6l-0.1-2.3c0-0.3-0.1-0.5-0.4-0.5l0,0c-0.2,0-0.3,0.2-0.4,0.4c-0.2,0.3-0.4,0.8-1,0.8h-0.8
	c-0.4,0-0.4,0-0.4-0.5v-1.8c0-0.7,0-0.7,1.4-0.7c1.5,0,1.6,0.6,1.7,1c0,0.2,0.1,0.5,0.4,0.5c0.1,0,0.2,0,0.3-0.1
	c0.2-0.2,0.1-0.5,0.1-0.6l0-1.3c0-0.2-0.2-0.4-0.4-0.4c-0.6,0-1.1,0-1.6,0c-0.4,0-0.9,0-1.3,0c-1.3,0-2.1,0-2.7,0
	c-0.3,0-0.5,0-0.7,0c-0.3,0-0.5,0.2-0.5,0.4c0,0.3,0.3,0.4,0.6,0.5c0.5,0.1,0.8,0.2,0.8,0.8v6c0,0.8-0.3,0.9-0.5,1
	c-0.2,0-0.4,0.1-0.4,0.5c0,0.2,0.1,0.3,0.4,0.3c0.4,0,0.8,0,1.1,0c0.5,0,0.8,0,1.4,0c0.6,0,1.3,0,2.6,0c1.2,0,2-1.2,2-2.2
	C135.6,43.4,135.3,43.4,135.3,43.4z"/>
<path class="st1" d="M149.3,40.2c-0.2-0.1-0.4-0.2-0.6-0.3c-1.3-0.6-1.7-0.8-1.7-1.4c0-0.7,0.5-1.2,1.3-1.2c1.5,0,2,1.2,2.3,1.8
	c0.1,0.3,0.2,0.5,0.4,0.5c0.2,0,0.3,0,0.4-0.1c0.1-0.1,0.1-0.3,0.1-0.5l-0.1-1.7c0-0.1,0-0.1,0-0.1c0-0.2,0-0.5-0.3-0.5
	c-0.1,0-0.3,0.1-0.4,0.1c-0.1,0-0.2,0.1-0.3,0.1c-0.1,0-0.3-0.1-0.5-0.1c-0.4-0.1-0.8-0.4-1.5-0.4c-1.6,0-2.7,1.1-2.7,2.7
	c0,1.5,0.9,2,2,2.5c0.3,0.1,0.5,0.2,0.8,0.3c1.5,0.6,2,0.8,2,1.7c0,0.9-0.6,1.5-1.6,1.5c-1.4,0-2.1-1.2-2.5-2.3
	c-0.1-0.2-0.1-0.4-0.4-0.4c-0.2,0-0.3,0.1-0.3,0.1c-0.1,0.2-0.1,0.4,0,0.6l0.4,1.8l0,0.1c0,0.3,0.1,0.4,0.5,0.5
	c0.2,0.1,0.4,0.1,0.7,0.2c0.5,0.1,1,0.3,1.6,0.3c1.8,0,3-1.2,3-3C151.6,41.4,150.6,40.8,149.3,40.2z"/>
<rect x="52.1" y="30.6" class="st1" width="116.7" height="0.6"/>
<path class="st1" d="M42.9,6.5H9.6c-2,0-3.7,1.6-3.7,3.7v37.3h40.6V10.1C46.6,8.1,44.9,6.5,42.9,6.5z M24,34l0,0.5l0.1,0.4l0.1,0.4
	l0.1,0.3l0,0.5c0,0,0.1,0.3,0.3,1c0.3,0.9,0.5,1.8,0.5,2c-0.5,0.4-1.1,1.1-1.4,1.2c-0.3,0.1-1.1,0.3-1.6,0.2c-0.1,0-0.2,0-0.3-0.1
	l-0.3,0c-0.1,0-0.4-0.3-1-0.8c0-0.2,0.1-0.4,0.2-0.5l0.4-0.4c0.1-0.1,0.2-0.2,0.3-0.4l0.2,0c0.3,0,0.5,0.2,0.7,0.5
	c-0.1,0.4-0.3,0.5-0.4,0.5l-0.8,0c0.3,0.4,0.6,0.5,1,0.5c0.1-0.1,0.2-0.2,0.3-0.3c0.3-0.3,0.5-0.5,0.5-0.5c0-0.2-0.7-1.1-1.5-1.4
	c-0.4,0.2-0.8,0.5-1.3,1c-0.5,0.5-0.4,1,0.1,1.8c-0.6,0.2-0.9,0.3-1,0.5l-0.4,0.4l-3.3,0c0.3-0.4,0.2-1.1,0.4-1.2
	c0,0,4.6-2.8,5.4-3.2c1-0.6,1.6-1.4,1.6-2.4c0,0,0.2,0,0.4-0.2c0.3-0.2,0.2-0.7,0.4-0.9l0.2-0.9c0.1,0,0.1,1,0.1,1.4L24,34z
	 M32,39.1l0.4,0.2c0,0.2-0.2,0.5-0.2,0.7c-0.2-0.1-0.5-0.3-1.1-0.8c-0.4-0.3-0.6-0.4-0.7-0.6l-0.6-0.2c-0.3-0.2-0.7-0.2-1-0.3
	l-0.7,0l0.5-0.3c0.9-0.5,2.7-1.1,2.9-1.1l0.3,0c0,0.2,0.1,0.2,0.1,0.3L32,38c-0.1,0.1-0.1,0.2-0.2,0.4C31.7,38.6,31.9,39.1,32,39.1z
	 M37.5,40.2l0.1-0.7c0-0.2,0.1-0.3,0.2-0.4c0.2-0.2,2.5-1.6,2.9-1.8c0.5,1.4,0.7,2.5,0.9,3.9h-2l-0.4-0.3l-0.5-0.2l-0.4-0.2
	L37.5,40.2z M9.6,7.3H26c0,0,0,0-0.1,0.1l-0.3,0.1c-0.3,0-0.7,0.1-1.1,0.4l-0.3,0.1C24.2,8,24,8.1,23.9,8.2
	c-0.4,0.3-0.7,0.5-0.8,0.6l-1.3,0.9c0,0-0.5,0.7-0.3,1l0.2,0.3c0,0.1,0.1,0.1,0.1,0.1c0,0,0,0.1-0.1,0.2c-0.1,0.1-0.1,0.3-0.1,0.6
	l0,0.5l0,0.7l0.1,0.8l0.1,0.3c0,0.2,0.2,0.9,0.3,1.1l0.3,0.5c0.1,0.1,0.1,0.3,0,0.6c-0.1,0.6-0.2,1.2-0.3,1.7c0,0.2,0,0.4,0.2,0.4
	c0.2,0,0.4,0,0.5,0l0.4,0c0.1,0.2,0.1,0.3,0.1,0.5c0.2,0.1,0.3,0.2,0.4,0.3l0.3,0.4c0.1,0.1,0.2,0.2,0.3,0.4c0,0.4,0,0.6,0.1,0.7
	c0,0.1,1.3,0.7,1.6,0.2c0.3,0,0.6,0,0.8-0.1v0.1c-0.6,2.5-0.9,4.8-1,7.3c0,0.2,0.2,0.4,0.4,0.3c0.5-0.3,3.4-1.2,5.2-1.4
	c0.5-0.1,1.2-0.1,1.3-0.8c0-0.7,0.8-4.2,1-4.9c0.5-1.9,1-3.1,1.4-3.8l0.2-0.4l-0.1-0.1l-0.9,0L34,16.7l-0.6,0
	c-0.1-0.1-0.2-0.4-0.4-0.8c0.3-0.8,0.4-1.2,0.3-1.5l-0.2-0.4c0-0.1,0-0.2,0-0.4l0.2-0.4c0.3-0.7-0.2-2-0.9-2.5L32,10.4
	c0,0-0.1-0.2-0.2-0.4C31.1,9,30.5,8.2,30,7.8c-0.3-0.2-0.6-0.4-0.9-0.5h13.8c1.6,0,2.8,1.3,2.8,2.8v31h-3.6c-0.3-2-0.6-3.1-1-4.2
	c0.9-0.4,1.6-0.9,2.3-1.5c0.4-0.4,0.8-1.1,0.8-1.2l0.2-1c0.1-0.4,0.2-1,0.2-1.5c0.9-0.4,0.9-1.6,0.4-2.1c-0.3-0.2,0.2-0.5,0.1-0.8
	c-0.1-0.6-0.2-1-0.4-1.2l-0.8-1.4c0.1-1-0.1-1.9-0.5-2.8l-0.3-0.9c-0.1-0.7-0.9-2-2.3-3.8c-0.4-0.4-0.7-0.7-1.1-0.9l-0.9-0.4
	c-0.9-0.5-1.5-0.6-1.9-0.1c-1.4,4.3-1.6,6.2-2,9.4c0,0.3,0,2,1.2,2.7c0.4,0.2,0.9,0.4,1.4,0.4c0.1,0,0.4,0.5,0.2,0.4
	c0,0.2,0.4,1.2,0.7,1.5l0.4,0.3c0.1,0.1,0.1,0.3,0.1,0.6c0,0-0.1,0.2-0.3,0.4c-0.5,0.5-1.1,1.1-1.8,1.7c-0.5,0.5-0.9,1.3-1.6,1.3
	l-0.9,0l-0.3-0.1l-0.2-0.2c-2,0.2-3.5-0.3-8.1,2.8c-1.1-3.7-1.2-5-1.2-7.5c0-1.5,0.3-3.8,0.9-7.1l0.3-2.1l-0.5,0
	c-0.3,0-0.7-0.5-0.8-0.7c-0.6,0.5-2.1,0.9-3.1,2.7c-0.5,1.2-0.8,3-1.1,4.3c-0.3,0.3-0.6,0.1-0.8,0.3c-0.3,0.5-0.3,1.1-0.5,1.8
	c-0.1,0.3-0.2,0.7-0.3,0.9c-0.3,0.4-0.5,0.6,0.1,1.2c-0.1,0.4-0.3,1-0.3,1.2c-1,1-3.1,3.4-3.7,4.2c-0.6,0.6-0.9,1.1-1.4,1.2
	c-0.6,0.1-1.6,0.1-2.1,0.5c-0.8,0.7-1.1,0.6-1.4,0.8c-0.1,0.1-0.3,0.4-0.6,0.5c-1.1,0.3,0.2,1.2,0.9,0.6c0,0,0.7,0.1,1-0.2
	c0.1,0.5,1.1,0.6,1.1,0.6l-5.2,0V10.1C6.8,8.6,8,7.3,9.6,7.3z"/>
<g>
	<path class="st0" d="M16.1,43.4V44c0,0.2,0,0.3,0,0.3c0,0,0.1,0.1,0.2,0.1l0.1,0l0.1,0h0.2c0.2,0,0.3-0.1,0.4-0.3l0.1-0.1
		c0,0,0,0,0.1,0c0,0,0.1,0,0.1,0.1c0,0,0,0.1,0,0.1c0,0,0,0.1,0,0.1c0,0.1,0,0.2,0,0.4c0,0.1,0,0.2,0,0.3l0,0.1c0,0,0,0,0,0
		c0,0,0,0,0,0c0,0-0.1,0-0.1-0.1c0-0.1-0.1-0.3-0.2-0.3c0,0-0.1-0.1-0.2-0.1c-0.1,0-0.2,0-0.4,0h-0.2c-0.1,0-0.1,0-0.2,0
		c0,0,0,0.1-0.1,0.1c0,0.1,0,0.2,0,0.4v0.2c0,0.2,0,0.4,0.1,0.5c0,0.1,0.1,0.1,0.1,0.2c0,0,0.1,0,0.2,0c0.7,0,1.1-0.2,1.3-0.6
		c0,0,0,0,0,0c0,0,0,0,0,0c0,0,0,0,0,0.1c0,0.2,0,0.3-0.1,0.5c-0.1,0.1-0.2,0.2-0.3,0.3c-0.1,0.1-0.3,0.1-0.4,0.1
		c-0.1,0-0.2,0-0.4,0l-0.3,0c-0.1,0-0.3,0-0.4,0c-0.1,0-0.3,0-0.6,0c-0.1,0-0.1,0-0.1,0c0,0-0.1,0-0.1-0.1c0,0,0-0.1,0.1-0.1
		c0.1,0,0.2-0.1,0.2-0.1c0,0,0.1-0.1,0.1-0.2c0-0.1,0-0.2,0-0.4v-2c0-0.2,0-0.3-0.1-0.4C15.3,43.1,15.2,43,15,43c0,0-0.1,0-0.1-0.1
		c0,0,0-0.1,0.1-0.1c0,0,0,0,0.1,0c0,0,0.1,0,0.1,0l0.3,0l1,0c0.5,0,0.9,0,1,0c0,0,0,0,0,0c0,0,0.1,0,0.1,0.1c0,0,0,0.1,0,0.2
		c0,0.1,0,0.3,0,0.3c0,0.1,0,0.2-0.1,0.2c0,0,0,0,0-0.1c0-0.2-0.1-0.3-0.2-0.4c-0.1-0.1-0.3-0.1-0.6-0.1h-0.3l-0.2,0
		c-0.1,0-0.1,0.1-0.1,0.3L16.1,43.4z"/>
	<path class="st0" d="M19.1,42.8c0.2,0,0.3,0,0.5,0.1l0.2,0.1c0.1,0,0.1,0,0.2,0c0,0,0,0,0.1,0l0.1,0c0,0,0,0,0,0c0,0,0.1,0,0.1,0.1
		l0,0.2c0,0,0,0.1,0,0.1l0,0.2l0,0.2c0,0,0,0,0,0.1c0,0.1,0,0.1-0.1,0.1c0,0-0.1,0-0.1-0.1c0-0.2-0.2-0.4-0.4-0.6
		c-0.2-0.2-0.4-0.3-0.6-0.3c-0.2,0-0.3,0.1-0.4,0.2c-0.1,0.1-0.2,0.2-0.2,0.4c0,0.1,0,0.2,0.1,0.3c0.1,0.1,0.3,0.2,0.6,0.3
		c0.4,0.2,0.7,0.3,0.8,0.5c0.2,0.2,0.2,0.4,0.2,0.7c0,0.3-0.1,0.5-0.3,0.8c-0.2,0.2-0.5,0.3-0.7,0.3c-0.1,0-0.3,0-0.6-0.1
		c-0.1,0-0.2-0.1-0.3-0.1c-0.1,0-0.1,0-0.1,0c0,0,0-0.1,0-0.1c0-0.1,0-0.2-0.1-0.3c-0.1-0.2-0.1-0.4-0.1-0.4c0-0.1,0-0.1,0.1-0.1
		c0,0,0,0,0.1,0.1c0.1,0.3,0.2,0.5,0.4,0.7c0.2,0.2,0.4,0.3,0.6,0.3c0.2,0,0.3-0.1,0.5-0.2c0.1-0.1,0.2-0.3,0.2-0.4
		c0-0.1,0-0.2-0.1-0.3c-0.1-0.1-0.2-0.2-0.4-0.2l-0.4-0.2c-0.4-0.2-0.6-0.3-0.7-0.5c-0.1-0.1-0.2-0.3-0.2-0.6c0-0.3,0.1-0.5,0.3-0.7
		C18.6,42.9,18.8,42.8,19.1,42.8z"/>
	<path class="st0" d="M22.5,43.5v1.9c0,0.3,0,0.5,0.1,0.6c0.1,0.1,0.2,0.2,0.4,0.2c0.1,0,0.1,0,0.1,0.1c0,0,0,0.1-0.1,0.1
		c0,0,0,0-0.1,0l-0.2,0l-0.3,0c0,0-0.1,0-0.1,0c-0.1,0-0.2,0-0.3,0l-0.6,0c-0.1,0-0.1,0-0.1,0c-0.1,0-0.1,0-0.1-0.1c0,0,0-0.1,0-0.1
		c0,0,0,0,0.1,0c0.1,0,0.2-0.1,0.3-0.1c0.1-0.1,0.1-0.2,0.1-0.4l0-0.1v-2.2c0-0.1-0.1-0.2-0.2-0.2c-0.3,0-0.6,0-0.7,0.1
		c-0.1,0-0.1,0.1-0.2,0.1c0,0-0.1,0.2-0.1,0.3l0,0.1c0,0.1,0,0.1-0.1,0.1c-0.1,0-0.1,0-0.1-0.1c0,0,0-0.1,0-0.2l0-0.2l0-0.2l0-0.2
		c0-0.1,0-0.1,0.1-0.1c0,0,0,0,0.1,0c0.1,0,0.2,0,0.3,0l0.5,0l0.6,0c0.4,0,0.8,0,1.3,0c0.1,0,0.1,0,0.2,0c0.1,0,0.1,0,0.1,0.1l0,0.2
		c0,0,0,0.1,0,0.2c0,0.1,0,0.2,0,0.2c0,0.1,0,0.1-0.1,0.1c0,0-0.1,0-0.1-0.1c0-0.2-0.1-0.3-0.2-0.3c-0.1-0.1-0.2-0.1-0.4-0.1
		c-0.3,0-0.4,0-0.5,0.1C22.6,43.2,22.5,43.3,22.5,43.5z"/>
	<path class="st0" d="M24.3,45.5c0,0,0.1,0,0.2,0.1l0.1,0.2l0.1,0.1c0,0,0,0,0,0.1c0,0,0,0.1-0.1,0.2c0,0-0.1,0.1-0.1,0.1
		c-0.1,0.1-0.1,0.1-0.2,0.1c0,0-0.1,0-0.1-0.1c-0.1-0.1-0.1-0.1-0.2-0.2c-0.1-0.1-0.1-0.1-0.1-0.2c0,0,0-0.1,0.1-0.2
		c0,0,0.1-0.1,0.2-0.2C24.2,45.5,24.3,45.5,24.3,45.5z"/>
	<path class="st0" d="M28,43.6v2.2l0,0.1l0,0.1c0,0.1,0.2,0.2,0.4,0.2c0.1,0,0.1,0,0.1,0.1c0,0.1-0.1,0.1-0.2,0.1c0,0-0.1,0-0.3,0
		c-0.1,0-0.2,0-0.4,0c-0.2,0-0.3,0-0.4,0c0,0-0.1,0-0.1,0c0,0-0.1,0-0.1-0.1c0,0,0-0.1,0.1-0.1c0.2,0,0.3-0.1,0.3-0.1
		c0.1-0.1,0.1-0.2,0.1-0.3l0-0.1v-1.9c0-0.2-0.1-0.3-0.2-0.3c-0.1,0-0.1,0-0.1,0l-0.1,0c0,0,0,0-0.1,0c0,0-0.1,0-0.1-0.1
		c0,0,0-0.1,0.1-0.1c0,0,0.1,0,0.3-0.1c0.2-0.1,0.4-0.1,0.5-0.2l0.1-0.1c0,0,0,0,0.1,0c0,0,0.1,0,0.1,0.1c0,0,0,0.1,0,0.1l0,0.2
		C28,43.5,28,43.5,28,43.6z"/>
	<path class="st0" d="M30.1,43c0.3,0,0.6,0.1,0.8,0.4c0.2,0.2,0.3,0.6,0.3,1c0,0.5-0.2,0.9-0.5,1.3c-0.3,0.4-0.7,0.6-1.2,0.7l-0.2,0
		c0,0,0,0-0.1,0c0,0-0.1,0-0.1-0.1c0,0,0,0,0,0c0,0,0.1,0,0.1,0c0.2-0.1,0.5-0.2,0.7-0.4c0.2-0.2,0.4-0.4,0.5-0.6l0-0.1
		c0,0,0-0.1,0-0.1c0-0.1,0-0.1-0.1-0.1c0,0,0,0-0.1,0c-0.1,0.1-0.2,0.1-0.3,0.2c-0.1,0-0.2,0.1-0.3,0.1c-0.2,0-0.4-0.1-0.6-0.3
		c-0.2-0.2-0.2-0.4-0.2-0.7c0-0.4,0.1-0.6,0.3-0.9C29.5,43.1,29.7,43,30.1,43z M29.9,43.2c-0.2,0-0.3,0.1-0.4,0.2
		c-0.1,0.1-0.1,0.3-0.1,0.5c0,0.3,0.1,0.5,0.2,0.7c0.1,0.2,0.3,0.3,0.5,0.3c0.2,0,0.3-0.1,0.4-0.2c0.1-0.1,0.2-0.3,0.2-0.5
		c0-0.3-0.1-0.5-0.2-0.7C30.3,43.3,30.1,43.2,29.9,43.2z"/>
	<path class="st0" d="M33.3,43.6h-0.9c-0.1,0-0.2,0.1-0.2,0.2c0,0.1,0,0.2,0,0.2c0,0,0,0.1,0,0.1c0,0.1,0,0.1,0.1,0.1c0,0,0,0,0.1,0
		c0.1,0,0.2,0,0.3,0c0.3,0,0.6,0.1,0.8,0.2c0.2,0.2,0.3,0.4,0.3,0.7c0,0.3-0.1,0.6-0.4,0.8s-0.6,0.3-0.9,0.3c-0.2,0-0.3,0-0.5-0.1
		c-0.2-0.1-0.3-0.1-0.3-0.2c0,0,0-0.1,0.1-0.1c0,0,0,0,0,0c0.2,0.1,0.4,0.1,0.6,0.1c0.2,0,0.5-0.1,0.6-0.2c0.2-0.2,0.3-0.3,0.3-0.6
		c0-0.2-0.1-0.3-0.2-0.5c-0.1-0.1-0.3-0.2-0.5-0.2c-0.1,0-0.1,0-0.3,0c-0.1,0-0.1,0-0.1,0c-0.1,0-0.1,0-0.1-0.1c0,0,0-0.1,0-0.1
		c0-0.1,0-0.2,0.1-0.4c0-0.1,0-0.2,0-0.3l0-0.3c0-0.2,0-0.2,0.1-0.3c0,0,0.1,0,0.1,0h1c0.1,0,0.1,0,0.2-0.1l0.1-0.1c0,0,0,0,0.1,0
		c0,0,0,0,0,0c0,0,0,0,0,0.1l-0.1,0.2l0,0.2c0,0.1-0.1,0.2-0.1,0.2C33.4,43.6,33.4,43.6,33.3,43.6z"/>
	<path class="st0" d="M35.6,43.6h-0.7l-0.2,0l-0.3,0c-0.1,0.1-0.2,0.1-0.2,0.3c0,0.1,0,0.1-0.1,0.1c-0.1,0-0.1,0-0.1-0.1
		c0-0.1,0-0.3,0.1-0.5l0.1-0.2l0-0.1c0,0,0-0.1,0.1-0.1c0,0,0.1,0,0.1,0c0.1,0,0.2,0,0.3,0h1c0.1,0,0.2,0,0.2,0c0,0,0,0.1,0,0.1
		c0,0.2-0.1,0.5-0.2,0.9l-0.2,0.5c-0.2,0.5-0.3,1-0.3,1.2c0,0.2,0,0.3,0,0.4l0,0.1c0,0,0,0,0,0c0,0,0,0-0.1,0.1c0,0,0,0,0,0
		c-0.1,0-0.2,0.1-0.3,0.1c-0.1,0-0.2,0-0.2-0.1s0-0.1,0-0.3c0-0.4,0.1-0.8,0.4-1.2l0.3-0.4c0.1-0.2,0.2-0.4,0.3-0.6
		c0.1-0.2,0.2-0.4,0.2-0.4C35.8,43.6,35.7,43.6,35.6,43.6z"/>
</g>
</svg>
