<?xml version="1.0" encoding="utf-8"?>
<!-- Generator: Adobe Illustrator 25.1.0, SVG Export Plug-In . SVG Version: 6.00 Build 0)  -->
<svg version="1.1" id="a" xmlns="http://www.w3.org/2000/svg" xmlns:xlink="http://www.w3.org/1999/xlink" x="0px" y="0px"
	 viewBox="0 0 214.4 150" style="enable-background:new 0 0 214.4 150;" xml:space="preserve" role="presentation">
<style type="text/css">
	.st0{clip-path:url(#SVGID_2_);}
	.st1{fill:#221F1F;}
	.st2{clip-path:url(#SVGID_4_);}
	.st3{clip-path:url(#SVGID_6_);}
	.st4{clip-path:url(#SVGID_8_);}
	.st5{clip-path:url(#SVGID_10_);}
	.st6{clip-path:url(#SVGID_12_);}
	.st7{clip-path:url(#SVGID_14_);}
	.st8{fill:#EF6623;}
	.st9{clip-path:url(#SVGID_16_);}
	.st10{fill:#FFFFFF;}
</style>
<g>
	<g>
		<defs>
			<rect id="SVGID_1_" x="42.2" y="20" width="130" height="110"/>
		</defs>
		<clipPath id="SVGID_2_">
			<use xlink:href="#SVGID_1_"  style="overflow:visible;"/>
		</clipPath>
		<g class="st0">
			<path class="st1" d="M53.7,124.8h0.9v3.3c0,0.7,0.5,1.1,1.1,1.1s1.1-0.4,1.1-1.1v-3.3h0.9v3.3c0,1.1-0.8,1.9-2.1,1.9
				s-2.1-0.8-2.1-1.9L53.7,124.8L53.7,124.8z"/>
			<path class="st1" d="M62.3,127.2c0.5,0,0.8-0.3,0.8-0.8s-0.2-0.8-0.9-0.8h-0.7v1.6C61.4,127.2,62.3,127.2,62.3,127.2z
				 M60.5,124.8h1.7c0.6,0,0.8,0,1,0.1c0.5,0.2,0.8,0.7,0.8,1.4c0,0.6-0.3,1.2-0.9,1.4l0,0c0,0,0.1,0.1,0.2,0.3l1,1.9h-1l-1-1.9
				h-0.9v1.9h-0.9V124.8L60.5,124.8z"/>
			<path class="st1" d="M68.6,129.1c0.5,0,0.7-0.3,0.7-0.7s-0.3-0.7-0.7-0.7h-1v1.5h1V129.1z M68.5,126.9c0.4,0,0.6-0.3,0.6-0.7
				s-0.2-0.6-0.7-0.6h-0.9v1.3L68.5,126.9L68.5,126.9z M66.7,124.8h1.8c0.9,0,1.6,0.5,1.6,1.3c0,0.5-0.2,0.9-0.6,1.1l0,0
				c0.6,0.2,0.8,0.7,0.8,1.2c0,1-0.8,1.5-1.8,1.5h-1.9L66.7,124.8L66.7,124.8z"/>
			<path class="st1" d="M74.4,125.7c0,0-0.1,0.5-0.2,0.8l-0.5,1.4H75l-0.5-1.4C74.5,126.2,74.4,125.7,74.4,125.7L74.4,125.7
				L74.4,125.7z M75.3,128.6h-1.8l-0.4,1.3h-1l1.8-5.1h1l1.8,5.1h-1L75.3,128.6L75.3,128.6z"/>
			<path class="st1" d="M78.8,124.8h0.9l1.9,3c0.2,0.3,0.4,0.8,0.4,0.8l0,0c0,0-0.1-0.5-0.1-0.8v-3H83v5.1h-0.9l-1.9-3
				c-0.2-0.3-0.4-0.8-0.4-0.8l0,0c0,0,0.1,0.5,0.1,0.8v3H79L78.8,124.8L78.8,124.8z"/>
			<path class="st1" d="M88.3,124.8h1l1.1,3.4c0.1,0.3,0.2,0.8,0.2,0.8l0,0c0,0,0.1-0.5,0.2-0.8l1.1-3.3h1L91,130h-0.9L88.3,124.8
				L88.3,124.8z"/>
		</g>
	</g>
</g>
<rect x="95.1" y="124.8" class="st1" width="0.9" height="5.1"/>
<polygon class="st1" points="98.7,124.8 98.7,129.9 101.9,129.9 101.9,129.1 99.7,129.1 99.7,124.8 "/>
<polygon class="st1" points="104.1,124.8 104.1,129.9 107.2,129.9 107.2,129.1 105,129.1 105,124.8 "/>
<g>
	<g>
		<defs>
			<rect id="SVGID_3_" x="42.2" y="20" width="130" height="110"/>
		</defs>
		<clipPath id="SVGID_4_">
			<use xlink:href="#SVGID_3_"  style="overflow:visible;"/>
		</clipPath>
		<g class="st2">
			<path class="st1" d="M111.2,125.7c0,0-0.1,0.5-0.2,0.8l-0.4,1.4h1.3l-0.4-1.4C111.4,126.2,111.2,125.7,111.2,125.7L111.2,125.7
				L111.2,125.7z M112.1,128.6h-1.8l-0.4,1.3h-1l1.8-5.1h1l1.8,5.1h-1L112.1,128.6L112.1,128.6z"/>
			<path class="st1" d="M117.9,124.7c1.3,0,1.9,0.7,1.9,0.7l-0.5,0.7c0,0-0.6-0.5-1.4-0.5c-1.2,0-1.8,0.8-1.8,1.8
				c0,1.1,0.8,1.8,1.7,1.8c0.8,0,1.3-0.5,1.3-0.5V128h-0.8v-0.8h1.6v2.7h-0.8v-0.2c0-0.1,0-0.2,0-0.2l0,0c0,0-0.5,0.6-1.5,0.6
				c-1.3,0-2.5-1.1-2.5-2.7C115.3,125.8,116.4,124.7,117.9,124.7"/>
		</g>
	</g>
</g>
<polygon class="st1" points="122.5,124.8 122.5,129.9 125.7,129.9 125.7,129.1 123.5,129.1 123.5,127.8 125.2,127.8 125.2,126.9 
	123.5,126.9 123.5,125.6 125.6,125.6 125.6,124.8 "/>
<polygon class="st1" points="131.3,124.8 131.3,129.9 134.5,129.9 134.5,129.1 132.3,129.1 132.3,124.8 "/>
<rect x="136.7" y="124.8" class="st1" width="0.9" height="5.1"/>
<g>
	<g>
		<defs>
			<rect id="SVGID_5_" x="42.2" y="20" width="130" height="110"/>
		</defs>
		<clipPath id="SVGID_6_">
			<use xlink:href="#SVGID_5_"  style="overflow:visible;"/>
		</clipPath>
		<g class="st3">
			<path class="st1" d="M139.7,124.8h1l1.1,3.4c0.1,0.3,0.2,0.8,0.2,0.8l0,0c0,0,0.1-0.5,0.2-0.8l1.1-3.3h1l-1.9,5.1h-0.9
				C141.6,129.9,139.7,124.8,139.7,124.8z"/>
		</g>
	</g>
</g>
<rect x="146.4" y="124.8" class="st1" width="0.9" height="5.1"/>
<g>
	<g>
		<defs>
			<rect id="SVGID_7_" x="42.2" y="20" width="130" height="110"/>
		</defs>
		<clipPath id="SVGID_8_">
			<use xlink:href="#SVGID_7_"  style="overflow:visible;"/>
		</clipPath>
		<g class="st4">
			<path class="st1" d="M150.1,124.8h0.9l1.9,3c0.2,0.3,0.4,0.8,0.4,0.8l0,0c0,0-0.1-0.5-0.1-0.8v-3h0.9v5.1h-0.9l-1.9-3
				c-0.2-0.3-0.4-0.8-0.4-0.8l0,0c0,0,0.1,0.5,0.1,0.8v3h-0.9C150.1,129.9,150.1,124.8,150.1,124.8z"/>
			<path class="st1" d="M159.4,124.7c1.3,0,1.9,0.7,1.9,0.7l-0.5,0.7c0,0-0.6-0.5-1.4-0.5c-1.1,0-1.8,0.8-1.8,1.8
				c0,1.1,0.8,1.8,1.7,1.8c0.8,0,1.3-0.5,1.3-0.5V128h-0.8v-0.8h1.6v2.7h-0.8v-0.2c0-0.1,0-0.2,0-0.2l0,0c0,0-0.5,0.6-1.5,0.6
				c-1.4,0-2.5-1.1-2.5-2.7C156.7,125.8,157.8,124.7,159.4,124.7"/>
			<path class="st1" d="M44.2,113.2c0,0,1.7,1.6,3.7,1.6c0.8,0,1.6-0.3,1.6-1.2c0-1.8-6.9-1.8-6.9-6.5c0-2.8,2.4-4.7,5.4-4.7
				c3.3,0,4.9,1.7,4.9,1.7l-1.6,3.1c0,0-1.5-1.3-3.4-1.3c-0.8,0-1.6,0.3-1.6,1.2c0,1.9,6.9,1.6,6.9,6.4c0,2.6-2,4.8-5.4,4.8
				s-5.6-2.2-5.6-2.2L44.2,113.2L44.2,113.2z"/>
		</g>
	</g>
</g>
<polygon class="st1" points="54.7,102.6 64.3,102.6 64.3,105.8 58.4,105.8 58.4,108.6 63.1,108.6 63.1,111.8 58.4,111.8 58.4,114.7 
	64.6,114.7 64.6,117.9 54.7,117.9 "/>
<g>
	<g>
		<defs>
			<rect id="SVGID_9_" x="42.2" y="20" width="130" height="110"/>
		</defs>
		<clipPath id="SVGID_10_">
			<use xlink:href="#SVGID_9_"  style="overflow:visible;"/>
		</clipPath>
		<g class="st5">
			<path class="st1" d="M71.9,106.1c0,0-0.3,1.7-0.6,2.6l-0.9,3h3l-0.9-3C72.3,107.8,72,106.1,71.9,106.1L71.9,106.1z M74.3,114.7
				h-4.8l-0.9,3.2h-3.9l5.2-15.3h3.9l5.2,15.3h-3.9L74.3,114.7z"/>
		</g>
	</g>
</g>
<polygon class="st1" points="81.1,105.8 76.5,105.8 76.5,102.6 89.5,102.6 89.5,105.8 84.9,105.8 84.9,117.9 81.1,117.9 "/>
<g>
	<g>
		<defs>
			<rect id="SVGID_11_" x="42.2" y="20" width="130" height="110"/>
		</defs>
		<clipPath id="SVGID_12_">
			<use xlink:href="#SVGID_11_"  style="overflow:visible;"/>
		</clipPath>
		<g class="st6">
			<path class="st1" d="M96.5,114.8c2.3,0,4.1-2,4.1-4.6s-1.8-4.4-4.1-4.4s-4.1,1.9-4.1,4.4S94.2,114.8,96.5,114.8 M96.5,102.4
				c4.6,0,8,3.4,8,7.8s-3.4,8-8,8s-8-3.5-8-8S91.9,102.4,96.5,102.4"/>
			<path class="st1" d="M105.6,102.6h3.8l4.2,7.2c0.6,1,1.3,2.6,1.3,2.6l0,0c0,0-0.2-1.7-0.2-2.6v-7.2h3.8v15.3h-3.8l-4.3-7.1
				c-0.6-1-1.3-2.6-1.3-2.6l0,0c0,0,0.2,1.7,0.2,2.6v7.1h-3.8C105.6,117.9,105.6,102.6,105.6,102.6z"/>
			<path class="st1" d="M118.7,102.6h4.1l2.7,8.7c0.3,1,0.6,2.5,0.6,2.5l0,0c0,0,0.3-1.5,0.6-2.5l2.7-8.7h4l-5.4,15.3h-3.9
				L118.7,102.6z"/>
		</g>
	</g>
</g>
<rect x="134" y="102.6" class="st1" width="3.8" height="15.3"/>
<polygon class="st1" points="140.3,102.6 144,102.6 144,114.7 150.3,114.7 150.3,117.9 140.3,117.9 "/>
<polygon class="st1" points="151.3,102.6 155,102.6 155,114.7 161.3,114.7 161.3,117.9 151.3,117.9 "/>
<polygon class="st1" points="162.3,102.6 162.3,117.9 172.2,117.9 172.2,114.7 166,114.7 166,111.8 170.7,111.8 170.7,108.6 
	166,108.6 166,105.8 171.9,105.8 171.9,102.6 "/>
<g>
	<g>
		<defs>
			<rect id="SVGID_13_" x="42.2" y="20" width="130" height="110"/>
		</defs>
		<clipPath id="SVGID_14_">
			<use xlink:href="#SVGID_13_"  style="overflow:visible;"/>
		</clipPath>
		<g class="st7">
			<path class="st8" d="M142,55.1c0,19.4-15.7,35.1-35.1,35.1S71.7,74.5,71.7,55.1S87.5,20,106.9,20S142,35.7,142,55.1"/>
		</g>
	</g>
</g>
<polygon class="st8" points="140.6,91.9 133.6,71.9 115.5,84 "/>
<g>
	<g>
		<defs>
			<rect id="SVGID_15_" x="42.2" y="20" width="130" height="110"/>
		</defs>
		<clipPath id="SVGID_16_">
			<use xlink:href="#SVGID_15_"  style="overflow:visible;"/>
		</clipPath>
		<g class="st9">
			<path class="st10" d="M89.5,55.9c-0.8,0.9-2.5,1.6-4.1,0.8c-0.4,1.1-0.9,2.7-2.2,3.3c-1.3,0.6-2.5-0.2-2.7-1.4
				c-0.5,0.7-1,1.6-1.8,2.1c-0.7,0.5-1.6,0.5-2.1-0.1c-0.5-0.7-0.5-2.1-0.4-2.9c0.1-0.5,0.3-1.5,1-1.6c0.4-0.1,0.8,0,0.9,0.3
				c0,0.2-0.2,0.4-0.4,0.5c-0.3,0.9-0.5,2.9,0.1,2.9c1-0.1,2.2-3,3.1-4.6c0.2-0.4,0.5-0.9,1.2-0.7s0.3,0.8,0.2,1.2
				c-0.2,0.9-0.6,2.1-0.2,3c0.4,0.8,1.2-0.7,1.3-1c0.5-1.1,0.8-2.2,1.1-3.3c0.1-0.4,0.4-1,0.9-0.8c0.5,0.1,0.6,0.6,0.5,1
				c-0.4,2.1,2.6,1.4,3.5,0.2C89.7,54.4,90,55.3,89.5,55.9"/>
			<path class="st10" d="M90.5,56c0.7-0.3,1.6-1.9,1-2c-0.4-0.1-0.9,0.9-1.1,1.5C90.3,55.7,90.2,56.1,90.5,56 M96.8,56.2
				c-0.5,1.3-1.9,2.6-3.4,3.3c-1.7,0.9-4.5,1-4.8-1.5c-0.1-1,0.2-2.2,0.6-3.1c0.4-0.9,1.1-2.1,2.2-2.2c2.2-0.2,1.1,4.9-1.3,4.2
				c-0.1,0.6-0.1,2.2,1.4,2c2.5-0.3,4.5-2.6,4.9-3.4C96.5,55.2,96.9,55.9,96.8,56.2"/>
			<path class="st10" d="M123.1,67.3c-3.8,0.3-17.3,1.7-26.2,3.8c-0.6,0.1-1.4,0.5-1.8-0.2c-0.2-0.3-0.1-0.8,0.4-1
				c0.6-0.2,1.3-0.3,2-0.5c6.4-1.3,14-2.3,23.7-3.1c0.9-0.1,2.5-0.4,2.8,0.2C123.9,66.7,123.5,67.2,123.1,67.3"/>
			<path class="st10" d="M109.1,54c0.1,0.6-3.2,4.3-6,4.6c-2,0.2-3-1-3.1-2.1c-0.2-2.2,1.6-4.7,3.6-4.9c0.9-0.1,1.3,0.4,1.3,1
				c0.1,1-0.2,1.7-0.9,1.7c-0.3,0-0.5-0.1-0.5-0.4c-0.1-0.8,0.7-0.6,0.2-1.1c-0.8-0.3-2.4,2.2-2.3,3.5c0.1,0.8,0.5,1.3,1.6,1.2
				c1.7-0.2,3.2-1.7,5-3.3C108.3,53.9,109,53.4,109.1,54"/>
			<path class="st10" d="M110.8,52.5c-1-0.3-2.6,4.4-1.6,4.3c0.7-0.1,1-1.2,1.2-1.8C110.6,54.6,111.3,52.6,110.8,52.5 M117.6,51.9
				c-0.5,0.6-2.6,2.1-4.5,2.3c-0.3,0-0.7,0-1.1-0.1c-0.3,1.3-1.2,3.6-2.7,3.8c-1,0.1-1.9-0.4-1.9-1.6c0-1.7,1.5-4.8,3.5-5
				s0.6,1.8,2,1.7c1.8-0.2,3.9-1.4,4.4-1.8C117.6,51.1,117.8,51.7,117.6,51.9"/>
			<path class="st10" d="M131.5,52.2c-0.9,1.2-2.5,2.2-3.9,2.7c-1.2,0.4-2.9,0.3-3.4-1.3c-0.7,0.9-1.5,2.3-2.6,2.4
				c-1.5,0.2-1.4-2.2-1.4-3.3c-0.8,0.9-1.4,2.3-2.2,3c-0.3,0.3-0.7,0.6-1.1,0.5c-0.5-0.1-0.5-0.6-0.5-1.1c0-0.7,0.2-1.7,0.2-2.4
				c0.1-0.4-0.1-1.2,0.3-1.4c0.3-0.2,0.8-0.2,1,0.2c0.2,0.6,0,1.6,0,2.1c0.7-0.8,1.9-2.8,2.9-2.9c1.3-0.1,0.9,2.7,1,3.5
				c0.6-0.5,0.9-1.2,1.4-1.8c0.4-0.5,0.8-1,1.3-1.1c1.3-0.3,0.8,2.4,2,2.4c1.7-0.1,3.1-1.1,4.2-2.2c0.4-0.4,0.5-0.7,0.8-0.5
				C131.7,51.3,131.9,51.8,131.5,52.2"/>
			<path class="st10" d="M132.3,51.7c0.7-0.3,1.6-1.9,1-2c-0.4-0.1-0.9,0.9-1.1,1.5C132.2,51.4,132,51.8,132.3,51.7 M138.7,51.9
				c-0.5,1.3-1.9,2.6-3.4,3.3c-1.7,0.9-4.5,1-4.8-1.5c-0.1-1,0.2-2.2,0.6-3.1c0.4-0.9,1.1-2.1,2.2-2.2c2.2-0.2,1.1,4.9-1.3,4.2
				c-0.1,0.6-0.1,2.2,1.4,2c2.5-0.3,4.5-2.6,4.9-3.4C138.4,50.9,138.8,51.6,138.7,51.9"/>
			<path class="st10" d="M99.6,50.1c0.6-1.5,3.3-7.1,3.2-8.7C101.4,43,100.1,47.8,99.6,50.1 M98.4,59.4c0.1,1,0.3,1.8,0.8,2.7
				c0,0.3-0.3,0.6-0.6,0.6c-1.4,0.1-1.8-1.9-1.8-2.9c-0.1-1,0-2,0.1-3.1c-0.8,1.1-3.4,3.1-5.2,3.3c-1.1,0.1,0.8-1.2,2.3-2.1
				c1.6-0.9,2.8-3.1,3.4-4.5c0.3-2.3,2.9-13.5,5.4-13.7c0.9-0.1,1.1,0.7,1.1,1.4c0.2,2.4-4,10.7-5.2,13
				C98.6,55.9,98.3,57.7,98.4,59.4"/>
		</g>
	</g>
</g>
</svg>
